<?xml version="1.0" standalone="no"?>
<!DOCTYPE svg PUBLIC "-//W3C//DTD SVG 20010904//EN"
 "http://www.w3.org/TR/2001/REC-SVG-20010904/DTD/svg10.dtd">
<svg version="1.0" xmlns="http://www.w3.org/2000/svg"
 width="512.000000pt" height="512.000000pt" viewBox="0 0 512.000000 512.000000"
 preserveAspectRatio="xMidYMid meet">

<g transform="translate(0.000000,512.000000) scale(0.100000,-0.100000)"
fill="#fff" stroke="none">
<path d="M2320 5109 c-491 -47 -981 -246 -1366 -557 -599 -482 -954 -1224
-954 -1992 0 -577 204 -1155 568 -1606 482 -599 1224 -954 1992 -954 577 0
1155 204 1606 568 599 482 954 1224 954 1992 0 577 -204 1155 -568 1606 -433
538 -1071 879 -1767 944 -125 11 -340 11 -465 -1z m820 -2545 l0 -395 -47 3
-48 3 1 120 c0 66 1 243 2 393 l2 272 45 0 45 0 0 -396z m210 331 l0 -65 -45
0 -45 0 0 65 0 65 45 0 45 0 0 -65z m635 33 c64 -33 139 -113 171 -182 66
-144 42 -341 -56 -457 l-41 -49 60 -78 c34 -44 61 -82 61 -86 0 -4 -26 -6 -57
-4 -54 3 -59 5 -90 46 -18 24 -37 50 -42 59 -8 14 -15 15 -70 3 -186 -39 -358
34 -431 184 -85 175 -50 381 87 506 78 72 135 91 258 87 84 -3 108 -7 150 -29z
m-2568 -17 c56 -32 86 -92 86 -171 -1 -73 -25 -125 -74 -159 -21 -14 -38 -28
-39 -31 0 -3 14 -14 30 -23 49 -29 63 -69 68 -190 4 -92 7 -109 23 -118 11 -5
19 -19 19 -29 0 -18 -7 -20 -55 -20 -82 0 -95 17 -95 128 0 184 -20 202 -222
202 l-138 0 0 -159 0 -159 -45 -4 c-24 -2 -49 -2 -55 0 -10 4 -16 753 -6 763
2 2 107 2 233 -1 219 -5 230 -6 270 -29z m874 -73 c1 -24 1 -55 1 -70 -1 -26
2 -27 51 -30 l52 -3 0 -40 0 -40 -50 -5 -50 -5 2 -179 c2 -116 7 -183 14 -192
7 -8 30 -14 55 -14 l44 0 0 -40 0 -40 -71 0 c-71 0 -104 10 -126 39 -9 11 -12
76 -13 223 l0 207 -37 3 c-36 3 -38 5 -38 38 0 32 3 35 35 40 l35 5 3 73 3 72
44 0 45 0 1 -42z m-387 -98 c100 -23 175 -122 184 -241 l5 -69 -214 -2 -214
-3 3 -35 c1 -19 14 -53 27 -76 59 -101 217 -100 276 1 18 30 26 35 59 35 22 0
41 -3 44 -8 7 -12 -18 -64 -49 -100 -48 -57 -98 -77 -195 -77 -99 0 -144 19
-202 83 -48 53 -63 101 -63 202 1 71 5 94 27 140 31 64 41 77 88 112 58 44
140 58 224 38z m923 -16 c79 -38 108 -110 100 -249 -3 -49 -2 -121 1 -160 6
-63 9 -70 30 -73 18 -3 22 -10 22 -38 l0 -34 -49 0 c-43 0 -53 4 -75 31 l-26
30 -26 -20 c-43 -34 -120 -54 -185 -48 -70 6 -115 30 -147 78 -20 29 -23 43
-20 98 4 59 7 66 45 101 47 45 87 58 203 66 101 8 130 22 130 65 0 43 -17 69
-55 85 -81 33 -173 8 -206 -57 -17 -34 -24 -39 -55 -39 -45 0 -53 20 -26 75
25 51 73 91 128 104 52 13 168 5 211 -15z m521 -266 l-3 -283 -40 0 -40 0 -3
283 -2 282 45 0 45 0 -2 -282z"/>
<path d="M3735 2857 c-17 -7 -47 -22 -67 -34 -134 -85 -157 -345 -43 -481 44
-52 98 -75 190 -79 97 -5 115 4 95 43 -8 16 -33 48 -56 71 l-41 43 64 0 63 0
32 -45 c18 -25 34 -45 37 -45 12 0 50 68 66 118 24 72 17 211 -13 268 -53 104
-132 154 -237 153 -33 0 -74 -6 -90 -12z"/>
<path d="M1020 2721 l0 -131 141 0 c157 0 193 10 222 59 9 16 17 50 17 75 0
39 -6 52 -34 84 l-34 37 -156 3 -156 3 0 -130z"/>
<path d="M1760 2648 c-47 -24 -90 -83 -90 -125 0 -23 1 -23 161 -23 l162 0 -6
37 c-18 106 -130 161 -227 111z"/>
<path d="M2808 2445 c-3 -3 -52 -10 -109 -15 -94 -8 -106 -11 -126 -35 -31
-35 -30 -86 1 -122 22 -25 31 -28 88 -28 115 0 168 47 168 149 0 50 -7 66 -22
51z"/>
</g>
</svg>
